<svg xmlns="http://www.w3.org/2000/svg" viewBox="0 0 220 260" role="img" aria-labelledby="cliff_asness-title cliff_asness-desc">
  <title id="cliff_asness-title">Cliff Asness original line-art portrait</title>
  <desc id="cliff_asness-desc">Original local SVG portrait asset for Investment Mirror master profile cards.</desc>
  <rect width="220" height="260" rx="10" fill="#f7f3ee"/>
  <path d="M18 214 C58 196 162 198 202 215 L202 242 L18 242 Z" fill="#efe4d7" stroke="#2d2926" stroke-width="1.5"/>
  <g opacity="0.85">
    <circle cx="88" cy="66" r="1.24" fill="#b96b2f" opacity="0.14"/>
    <circle cx="105" cy="95" r="1.46" fill="#b96b2f" opacity="0.18"/>
    <circle cx="122" cy="124" r="0.80" fill="#b96b2f" opacity="0.21"/>
    <circle cx="139" cy="153" r="1.02" fill="#b96b2f" opacity="0.25"/>
    <circle cx="156" cy="40" r="1.24" fill="#b96b2f" opacity="0.28"/>
    <circle cx="173" cy="69" r="1.46" fill="#b96b2f" opacity="0.14"/>
    <circle cx="34" cy="98" r="0.80" fill="#b96b2f" opacity="0.18"/>
    <circle cx="51" cy="127" r="1.02" fill="#b96b2f" opacity="0.21"/>
    <circle cx="68" cy="156" r="1.24" fill="#b96b2f" opacity="0.25"/>
    <circle cx="85" cy="43" r="1.46" fill="#b96b2f" opacity="0.28"/>
    <circle cx="102" cy="72" r="0.80" fill="#b96b2f" opacity="0.14"/>
    <circle cx="119" cy="101" r="1.02" fill="#b96b2f" opacity="0.18"/>
    <circle cx="136" cy="130" r="1.24" fill="#b96b2f" opacity="0.21"/>
    <circle cx="153" cy="159" r="1.46" fill="#b96b2f" opacity="0.25"/>
    <circle cx="170" cy="46" r="0.80" fill="#b96b2f" opacity="0.28"/>
    <circle cx="31" cy="75" r="1.02" fill="#b96b2f" opacity="0.14"/>
    <circle cx="48" cy="104" r="1.24" fill="#b96b2f" opacity="0.18"/>
    <circle cx="65" cy="133" r="1.46" fill="#b96b2f" opacity="0.21"/>
    <circle cx="82" cy="162" r="0.80" fill="#b96b2f" opacity="0.25"/>
    <circle cx="99" cy="49" r="1.02" fill="#b96b2f" opacity="0.28"/>
    <circle cx="116" cy="78" r="1.24" fill="#b96b2f" opacity="0.14"/>
    <circle cx="133" cy="107" r="1.46" fill="#b96b2f" opacity="0.18"/>
    <circle cx="150" cy="136" r="0.80" fill="#b96b2f" opacity="0.21"/>
    <circle cx="167" cy="165" r="1.02" fill="#b96b2f" opacity="0.25"/>
    <circle cx="28" cy="52" r="1.24" fill="#b96b2f" opacity="0.28"/>
    <circle cx="45" cy="81" r="1.46" fill="#b96b2f" opacity="0.14"/>
    <circle cx="62" cy="110" r="0.80" fill="#b96b2f" opacity="0.18"/>
    <circle cx="79" cy="139" r="1.02" fill="#b96b2f" opacity="0.21"/>
    <circle cx="96" cy="26" r="1.24" fill="#b96b2f" opacity="0.25"/>
    <circle cx="113" cy="55" r="1.46" fill="#b96b2f" opacity="0.28"/>
    <circle cx="130" cy="84" r="0.80" fill="#b96b2f" opacity="0.14"/>
    <circle cx="147" cy="113" r="1.02" fill="#b96b2f" opacity="0.18"/>
    <circle cx="164" cy="142" r="1.24" fill="#b96b2f" opacity="0.21"/>
    <circle cx="25" cy="29" r="1.46" fill="#b96b2f" opacity="0.25"/>
    <circle cx="42" cy="58" r="0.80" fill="#b96b2f" opacity="0.28"/>
    <circle cx="59" cy="87" r="1.02" fill="#b96b2f" opacity="0.14"/>
    <circle cx="76" cy="116" r="1.24" fill="#b96b2f" opacity="0.18"/>
    <circle cx="93" cy="145" r="1.46" fill="#b96b2f" opacity="0.21"/>
    <circle cx="110" cy="32" r="0.80" fill="#b96b2f" opacity="0.25"/>
    <circle cx="127" cy="61" r="1.02" fill="#b96b2f" opacity="0.28"/>
    <circle cx="144" cy="90" r="1.24" fill="#b96b2f" opacity="0.14"/>
    <circle cx="161" cy="119" r="1.46" fill="#b96b2f" opacity="0.18"/>
    <circle cx="22" cy="148" r="0.80" fill="#b96b2f" opacity="0.21"/>
    <circle cx="39" cy="35" r="1.02" fill="#b96b2f" opacity="0.25"/>
    <circle cx="56" cy="64" r="1.24" fill="#b96b2f" opacity="0.28"/>
    <circle cx="73" cy="93" r="1.46" fill="#b96b2f" opacity="0.14"/>
    <circle cx="90" cy="122" r="0.80" fill="#b96b2f" opacity="0.18"/>
    <circle cx="107" cy="151" r="1.02" fill="#b96b2f" opacity="0.21"/>
  </g>
  <path d="M57.5 206 C72 178 148 178 162.5 206" fill="none" stroke="#2d2926" stroke-width="3" stroke-linecap="round"/>
  <path d="M64 48 C78 22 139 17 156 55 C177 67 169 134 148 160 C132 180 92 180 73 158 C54 136 48 71 64 48 Z" fill="#fffaf4" stroke="#2d2926" stroke-width="2.5"/>
  <path d="M64 52 C83 32 136 30 158 60 C145 55 124 56 105 53 C87 50 75 56 64 52 Z" fill="#2d2926" opacity="0.08" stroke="#2d2926" stroke-width="1.2"/>
  <path d="M82 104 C91 100 99 101 106 106" fill="none" stroke="#2d2926" stroke-width="2" stroke-linecap="round"/>
  <path d="M121 106 C130 101 139 100 148 104" fill="none" stroke="#2d2926" stroke-width="2" stroke-linecap="round"/>
  <path d="M111 111 C108 124 108 132 115 136" fill="none" stroke="#2d2926" stroke-width="1.6" stroke-linecap="round"/>
  <path d="M91 141 C105 149 128 149 142 141" fill="none" stroke="#2d2926" stroke-width="2" stroke-linecap="round"/>
  <path d="M48 30 L174 218" stroke="#b96b2f" stroke-width="1" opacity="0.42"/>
  <path d="M174 30 L48 218" stroke="#b96b2f" stroke-width="1" opacity="0.18"/>
  <rect x="20" y="18" width="180" height="222" rx="8" fill="none" stroke="#2d2926" stroke-width="1.2" opacity="0.28"/>
  <text x="110" y="235" text-anchor="middle" font-family="Georgia, 'Times New Roman', serif" font-size="17" fill="#2d2926" letter-spacing="1.5">CA</text>
</svg>
