<svg xmlns="http://www.w3.org/2000/svg" viewBox="0 0 220 260" role="img" aria-labelledby="ray_dalio-title ray_dalio-desc">
  <title id="ray_dalio-title">Ray Dalio original line-art portrait</title>
  <desc id="ray_dalio-desc">Original local SVG portrait asset for Investment Mirror master profile cards.</desc>
  <rect width="220" height="260" rx="10" fill="#f7f3ee"/>
  <path d="M18 214 C58 196 162 198 202 215 L202 242 L18 242 Z" fill="#efe4d7" stroke="#2d2926" stroke-width="1.5"/>
  <g opacity="0.85">
    <circle cx="66" cy="52" r="0.80" fill="#b96b2f" opacity="0.25"/>
    <circle cx="83" cy="81" r="1.02" fill="#b96b2f" opacity="0.28"/>
    <circle cx="100" cy="110" r="1.24" fill="#b96b2f" opacity="0.14"/>
    <circle cx="117" cy="139" r="1.46" fill="#b96b2f" opacity="0.18"/>
    <circle cx="134" cy="26" r="0.80" fill="#b96b2f" opacity="0.21"/>
    <circle cx="151" cy="55" r="1.02" fill="#b96b2f" opacity="0.25"/>
    <circle cx="168" cy="84" r="1.24" fill="#b96b2f" opacity="0.28"/>
    <circle cx="29" cy="113" r="1.46" fill="#b96b2f" opacity="0.14"/>
    <circle cx="46" cy="142" r="0.80" fill="#b96b2f" opacity="0.18"/>
    <circle cx="63" cy="29" r="1.02" fill="#b96b2f" opacity="0.21"/>
    <circle cx="80" cy="58" r="1.24" fill="#b96b2f" opacity="0.25"/>
    <circle cx="97" cy="87" r="1.46" fill="#b96b2f" opacity="0.28"/>
    <circle cx="114" cy="116" r="0.80" fill="#b96b2f" opacity="0.14"/>
    <circle cx="131" cy="145" r="1.02" fill="#b96b2f" opacity="0.18"/>
    <circle cx="148" cy="32" r="1.24" fill="#b96b2f" opacity="0.21"/>
    <circle cx="165" cy="61" r="1.46" fill="#b96b2f" opacity="0.25"/>
    <circle cx="26" cy="90" r="0.80" fill="#b96b2f" opacity="0.28"/>
    <circle cx="43" cy="119" r="1.02" fill="#b96b2f" opacity="0.14"/>
    <circle cx="60" cy="148" r="1.24" fill="#b96b2f" opacity="0.18"/>
    <circle cx="77" cy="35" r="1.46" fill="#b96b2f" opacity="0.21"/>
    <circle cx="94" cy="64" r="0.80" fill="#b96b2f" opacity="0.25"/>
    <circle cx="111" cy="93" r="1.02" fill="#b96b2f" opacity="0.28"/>
    <circle cx="128" cy="122" r="1.24" fill="#b96b2f" opacity="0.14"/>
    <circle cx="145" cy="151" r="1.46" fill="#b96b2f" opacity="0.18"/>
    <circle cx="162" cy="38" r="0.80" fill="#b96b2f" opacity="0.21"/>
    <circle cx="23" cy="67" r="1.02" fill="#b96b2f" opacity="0.25"/>
    <circle cx="40" cy="96" r="1.24" fill="#b96b2f" opacity="0.28"/>
    <circle cx="57" cy="125" r="1.46" fill="#b96b2f" opacity="0.14"/>
    <circle cx="74" cy="154" r="0.80" fill="#b96b2f" opacity="0.18"/>
    <circle cx="91" cy="41" r="1.02" fill="#b96b2f" opacity="0.21"/>
    <circle cx="108" cy="70" r="1.24" fill="#b96b2f" opacity="0.25"/>
    <circle cx="125" cy="99" r="1.46" fill="#b96b2f" opacity="0.28"/>
    <circle cx="142" cy="128" r="0.80" fill="#b96b2f" opacity="0.14"/>
    <circle cx="159" cy="157" r="1.02" fill="#b96b2f" opacity="0.18"/>
    <circle cx="176" cy="44" r="1.24" fill="#b96b2f" opacity="0.21"/>
    <circle cx="37" cy="73" r="1.46" fill="#b96b2f" opacity="0.25"/>
    <circle cx="54" cy="102" r="0.80" fill="#b96b2f" opacity="0.28"/>
    <circle cx="71" cy="131" r="1.02" fill="#b96b2f" opacity="0.14"/>
    <circle cx="88" cy="160" r="1.24" fill="#b96b2f" opacity="0.18"/>
    <circle cx="105" cy="47" r="1.46" fill="#b96b2f" opacity="0.21"/>
    <circle cx="122" cy="76" r="0.80" fill="#b96b2f" opacity="0.25"/>
    <circle cx="139" cy="105" r="1.02" fill="#b96b2f" opacity="0.28"/>
    <circle cx="156" cy="134" r="1.24" fill="#b96b2f" opacity="0.14"/>
    <circle cx="173" cy="163" r="1.46" fill="#b96b2f" opacity="0.18"/>
    <circle cx="34" cy="50" r="0.80" fill="#b96b2f" opacity="0.21"/>
    <circle cx="51" cy="79" r="1.02" fill="#b96b2f" opacity="0.25"/>
    <circle cx="68" cy="108" r="1.24" fill="#b96b2f" opacity="0.28"/>
    <circle cx="85" cy="137" r="1.46" fill="#b96b2f" opacity="0.14"/>
  </g>
  <path d="M52.833333333333336 206 C72 178 148 178 167.16666666666666 206" fill="none" stroke="#2d2926" stroke-width="3" stroke-linecap="round"/>
  <path d="M64 46 C78 22 139 17 156 53 C177 67 169 134 148 160 C132 180 92 180 73 158 C54 136 48 71 64 46 Z" fill="#fffaf4" stroke="#2d2926" stroke-width="2.5"/>
  <path d="M64 50 C83 30 136 28 158 58 C145 53 124 54 105 51 C87 48 75 54 64 50 Z" fill="#2d2926" opacity="0.08" stroke="#2d2926" stroke-width="1.2"/>
  <path d="M82 104 C91 100 99 101 106 106" fill="none" stroke="#2d2926" stroke-width="2" stroke-linecap="round"/>
  <path d="M121 106 C130 101 139 100 148 104" fill="none" stroke="#2d2926" stroke-width="2" stroke-linecap="round"/>
  <path d="M111 111 C108 124 108 132 115 136" fill="none" stroke="#2d2926" stroke-width="1.6" stroke-linecap="round"/>
  <path d="M91 158 C105 166 128 166 142 158" fill="none" stroke="#2d2926" stroke-width="2" stroke-linecap="round"/>
  <path d="M48 30 L174 218" stroke="#b96b2f" stroke-width="1" opacity="0.42"/>
  <path d="M174 30 L48 218" stroke="#b96b2f" stroke-width="1" opacity="0.18"/>
  <rect x="20" y="18" width="180" height="222" rx="8" fill="none" stroke="#2d2926" stroke-width="1.2" opacity="0.28"/>
  <text x="110" y="235" text-anchor="middle" font-family="Georgia, 'Times New Roman', serif" font-size="17" fill="#2d2926" letter-spacing="1.5">RD</text>
</svg>
