<svg xmlns="http://www.w3.org/2000/svg" viewBox="0 0 220 260" role="img" aria-labelledby="carl_icahn-title carl_icahn-desc">
  <title id="carl_icahn-title">Carl Icahn original line-art portrait</title>
  <desc id="carl_icahn-desc">Original local SVG portrait asset for Investment Mirror master profile cards.</desc>
  <rect width="220" height="260" rx="10" fill="#f7f3ee"/>
  <path d="M18 214 C58 196 162 198 202 215 L202 242 L18 242 Z" fill="#efe4d7" stroke="#2d2926" stroke-width="1.5"/>
  <g opacity="0.85">
    <circle cx="44" cy="38" r="1.24" fill="#b96b2f" opacity="0.28"/>
    <circle cx="61" cy="67" r="1.46" fill="#b96b2f" opacity="0.14"/>
    <circle cx="78" cy="96" r="0.80" fill="#b96b2f" opacity="0.18"/>
    <circle cx="95" cy="125" r="1.02" fill="#b96b2f" opacity="0.21"/>
    <circle cx="112" cy="154" r="1.24" fill="#b96b2f" opacity="0.25"/>
    <circle cx="129" cy="41" r="1.46" fill="#b96b2f" opacity="0.28"/>
    <circle cx="146" cy="70" r="0.80" fill="#b96b2f" opacity="0.14"/>
    <circle cx="163" cy="99" r="1.02" fill="#b96b2f" opacity="0.18"/>
    <circle cx="24" cy="128" r="1.24" fill="#b96b2f" opacity="0.21"/>
    <circle cx="41" cy="157" r="1.46" fill="#b96b2f" opacity="0.25"/>
    <circle cx="58" cy="44" r="0.80" fill="#b96b2f" opacity="0.28"/>
    <circle cx="75" cy="73" r="1.02" fill="#b96b2f" opacity="0.14"/>
    <circle cx="92" cy="102" r="1.24" fill="#b96b2f" opacity="0.18"/>
    <circle cx="109" cy="131" r="1.46" fill="#b96b2f" opacity="0.21"/>
    <circle cx="126" cy="160" r="0.80" fill="#b96b2f" opacity="0.25"/>
    <circle cx="143" cy="47" r="1.02" fill="#b96b2f" opacity="0.28"/>
    <circle cx="160" cy="76" r="1.24" fill="#b96b2f" opacity="0.14"/>
    <circle cx="177" cy="105" r="1.46" fill="#b96b2f" opacity="0.18"/>
    <circle cx="38" cy="134" r="0.80" fill="#b96b2f" opacity="0.21"/>
    <circle cx="55" cy="163" r="1.02" fill="#b96b2f" opacity="0.25"/>
    <circle cx="72" cy="50" r="1.24" fill="#b96b2f" opacity="0.28"/>
    <circle cx="89" cy="79" r="1.46" fill="#b96b2f" opacity="0.14"/>
    <circle cx="106" cy="108" r="0.80" fill="#b96b2f" opacity="0.18"/>
    <circle cx="123" cy="137" r="1.02" fill="#b96b2f" opacity="0.21"/>
    <circle cx="140" cy="24" r="1.24" fill="#b96b2f" opacity="0.25"/>
    <circle cx="157" cy="53" r="1.46" fill="#b96b2f" opacity="0.28"/>
    <circle cx="174" cy="82" r="0.80" fill="#b96b2f" opacity="0.14"/>
    <circle cx="35" cy="111" r="1.02" fill="#b96b2f" opacity="0.18"/>
    <circle cx="52" cy="140" r="1.24" fill="#b96b2f" opacity="0.21"/>
    <circle cx="69" cy="27" r="1.46" fill="#b96b2f" opacity="0.25"/>
    <circle cx="86" cy="56" r="0.80" fill="#b96b2f" opacity="0.28"/>
    <circle cx="103" cy="85" r="1.02" fill="#b96b2f" opacity="0.14"/>
    <circle cx="120" cy="114" r="1.24" fill="#b96b2f" opacity="0.18"/>
    <circle cx="137" cy="143" r="1.46" fill="#b96b2f" opacity="0.21"/>
    <circle cx="154" cy="30" r="0.80" fill="#b96b2f" opacity="0.25"/>
    <circle cx="171" cy="59" r="1.02" fill="#b96b2f" opacity="0.28"/>
    <circle cx="32" cy="88" r="1.24" fill="#b96b2f" opacity="0.14"/>
    <circle cx="49" cy="117" r="1.46" fill="#b96b2f" opacity="0.18"/>
    <circle cx="66" cy="146" r="0.80" fill="#b96b2f" opacity="0.21"/>
    <circle cx="83" cy="33" r="1.02" fill="#b96b2f" opacity="0.25"/>
    <circle cx="100" cy="62" r="1.24" fill="#b96b2f" opacity="0.28"/>
    <circle cx="117" cy="91" r="1.46" fill="#b96b2f" opacity="0.14"/>
    <circle cx="134" cy="120" r="0.80" fill="#b96b2f" opacity="0.18"/>
    <circle cx="151" cy="149" r="1.02" fill="#b96b2f" opacity="0.21"/>
    <circle cx="168" cy="36" r="1.24" fill="#b96b2f" opacity="0.25"/>
    <circle cx="29" cy="65" r="1.46" fill="#b96b2f" opacity="0.28"/>
    <circle cx="46" cy="94" r="0.80" fill="#b96b2f" opacity="0.14"/>
    <circle cx="63" cy="123" r="1.02" fill="#b96b2f" opacity="0.18"/>
  </g>
  <path d="M57.833333333333336 206 C72 178 148 178 162.16666666666666 206" fill="none" stroke="#2d2926" stroke-width="3" stroke-linecap="round"/>
  <path d="M64 44 C78 22 139 17 156 51 C177 67 169 134 148 160 C132 180 92 180 73 158 C54 136 48 71 64 44 Z" fill="#fffaf4" stroke="#2d2926" stroke-width="2.5"/>
  <path d="M64 48 C83 28 136 26 158 56 C145 51 124 52 105 49 C87 46 75 52 64 48 Z" fill="#2d2926" opacity="0.08" stroke="#2d2926" stroke-width="1.2"/>
  <path d="M82 104 C91 100 99 101 106 106" fill="none" stroke="#2d2926" stroke-width="2" stroke-linecap="round"/>
  <path d="M121 106 C130 101 139 100 148 104" fill="none" stroke="#2d2926" stroke-width="2" stroke-linecap="round"/>
  <path d="M111 111 C108 124 108 132 115 136" fill="none" stroke="#2d2926" stroke-width="1.6" stroke-linecap="round"/>
  <path d="M91 148 C105 156 128 156 142 148" fill="none" stroke="#2d2926" stroke-width="2" stroke-linecap="round"/>
  <path d="M48 30 L174 218" stroke="#b96b2f" stroke-width="1" opacity="0.42"/>
  <path d="M174 30 L48 218" stroke="#b96b2f" stroke-width="1" opacity="0.18"/>
  <rect x="20" y="18" width="180" height="222" rx="8" fill="none" stroke="#2d2926" stroke-width="1.2" opacity="0.28"/>
  <text x="110" y="235" text-anchor="middle" font-family="Georgia, 'Times New Roman', serif" font-size="17" fill="#2d2926" letter-spacing="1.5">CI</text>
</svg>
