<svg xmlns="http://www.w3.org/2000/svg" viewBox="0 0 220 260" role="img" aria-labelledby="george_soros-title george_soros-desc">
  <title id="george_soros-title">George Soros original line-art portrait</title>
  <desc id="george_soros-desc">Original local SVG portrait asset for Investment Mirror master profile cards.</desc>
  <rect width="220" height="260" rx="10" fill="#f7f3ee"/>
  <path d="M18 214 C58 196 162 198 202 215 L202 242 L18 242 Z" fill="#efe4d7" stroke="#2d2926" stroke-width="1.5"/>
  <g opacity="0.85">
    <circle cx="99" cy="73" r="1.46" fill="#b96b2f" opacity="0.21"/>
    <circle cx="116" cy="102" r="0.80" fill="#b96b2f" opacity="0.25"/>
    <circle cx="133" cy="131" r="1.02" fill="#b96b2f" opacity="0.28"/>
    <circle cx="150" cy="160" r="1.24" fill="#b96b2f" opacity="0.14"/>
    <circle cx="167" cy="47" r="1.46" fill="#b96b2f" opacity="0.18"/>
    <circle cx="28" cy="76" r="0.80" fill="#b96b2f" opacity="0.21"/>
    <circle cx="45" cy="105" r="1.02" fill="#b96b2f" opacity="0.25"/>
    <circle cx="62" cy="134" r="1.24" fill="#b96b2f" opacity="0.28"/>
    <circle cx="79" cy="163" r="1.46" fill="#b96b2f" opacity="0.14"/>
    <circle cx="96" cy="50" r="0.80" fill="#b96b2f" opacity="0.18"/>
    <circle cx="113" cy="79" r="1.02" fill="#b96b2f" opacity="0.21"/>
    <circle cx="130" cy="108" r="1.24" fill="#b96b2f" opacity="0.25"/>
    <circle cx="147" cy="137" r="1.46" fill="#b96b2f" opacity="0.28"/>
    <circle cx="164" cy="24" r="0.80" fill="#b96b2f" opacity="0.14"/>
    <circle cx="25" cy="53" r="1.02" fill="#b96b2f" opacity="0.18"/>
    <circle cx="42" cy="82" r="1.24" fill="#b96b2f" opacity="0.21"/>
    <circle cx="59" cy="111" r="1.46" fill="#b96b2f" opacity="0.25"/>
    <circle cx="76" cy="140" r="0.80" fill="#b96b2f" opacity="0.28"/>
    <circle cx="93" cy="27" r="1.02" fill="#b96b2f" opacity="0.14"/>
    <circle cx="110" cy="56" r="1.24" fill="#b96b2f" opacity="0.18"/>
    <circle cx="127" cy="85" r="1.46" fill="#b96b2f" opacity="0.21"/>
    <circle cx="144" cy="114" r="0.80" fill="#b96b2f" opacity="0.25"/>
    <circle cx="161" cy="143" r="1.02" fill="#b96b2f" opacity="0.28"/>
    <circle cx="22" cy="30" r="1.24" fill="#b96b2f" opacity="0.14"/>
    <circle cx="39" cy="59" r="1.46" fill="#b96b2f" opacity="0.18"/>
    <circle cx="56" cy="88" r="0.80" fill="#b96b2f" opacity="0.21"/>
    <circle cx="73" cy="117" r="1.02" fill="#b96b2f" opacity="0.25"/>
    <circle cx="90" cy="146" r="1.24" fill="#b96b2f" opacity="0.28"/>
    <circle cx="107" cy="33" r="1.46" fill="#b96b2f" opacity="0.14"/>
    <circle cx="124" cy="62" r="0.80" fill="#b96b2f" opacity="0.18"/>
    <circle cx="141" cy="91" r="1.02" fill="#b96b2f" opacity="0.21"/>
    <circle cx="158" cy="120" r="1.24" fill="#b96b2f" opacity="0.25"/>
    <circle cx="175" cy="149" r="1.46" fill="#b96b2f" opacity="0.28"/>
    <circle cx="36" cy="36" r="0.80" fill="#b96b2f" opacity="0.14"/>
    <circle cx="53" cy="65" r="1.02" fill="#b96b2f" opacity="0.18"/>
    <circle cx="70" cy="94" r="1.24" fill="#b96b2f" opacity="0.21"/>
    <circle cx="87" cy="123" r="1.46" fill="#b96b2f" opacity="0.25"/>
    <circle cx="104" cy="152" r="0.80" fill="#b96b2f" opacity="0.28"/>
    <circle cx="121" cy="39" r="1.02" fill="#b96b2f" opacity="0.14"/>
    <circle cx="138" cy="68" r="1.24" fill="#b96b2f" opacity="0.18"/>
    <circle cx="155" cy="97" r="1.46" fill="#b96b2f" opacity="0.21"/>
    <circle cx="172" cy="126" r="0.80" fill="#b96b2f" opacity="0.25"/>
    <circle cx="33" cy="155" r="1.02" fill="#b96b2f" opacity="0.28"/>
    <circle cx="50" cy="42" r="1.24" fill="#b96b2f" opacity="0.14"/>
    <circle cx="67" cy="71" r="1.46" fill="#b96b2f" opacity="0.18"/>
    <circle cx="84" cy="100" r="0.80" fill="#b96b2f" opacity="0.21"/>
    <circle cx="101" cy="129" r="1.02" fill="#b96b2f" opacity="0.25"/>
    <circle cx="118" cy="158" r="1.24" fill="#b96b2f" opacity="0.28"/>
  </g>
  <path d="M54.5 206 C72 178 148 178 165.5 206" fill="none" stroke="#2d2926" stroke-width="3" stroke-linecap="round"/>
  <path d="M64 58 C78 22 139 17 156 65 C177 67 169 134 148 160 C132 180 92 180 73 158 C54 136 48 71 64 58 Z" fill="#fffaf4" stroke="#2d2926" stroke-width="2.5"/>
  <path d="M64 62 C83 42 136 40 158 70 C145 65 124 66 105 63 C87 60 75 66 64 62 Z" fill="#2d2926" opacity="0.08" stroke="#2d2926" stroke-width="1.2"/>
  <path d="M82 104 C91 100 99 101 106 106" fill="none" stroke="#2d2926" stroke-width="2" stroke-linecap="round"/>
  <path d="M121 106 C130 101 139 100 148 104" fill="none" stroke="#2d2926" stroke-width="2" stroke-linecap="round"/>
  <path d="M111 111 C108 124 108 132 115 136" fill="none" stroke="#2d2926" stroke-width="1.6" stroke-linecap="round"/>
  <path d="M91 155 C105 163 128 163 142 155" fill="none" stroke="#2d2926" stroke-width="2" stroke-linecap="round"/>
  <path d="M48 30 L174 218" stroke="#b96b2f" stroke-width="1" opacity="0.42"/>
  <path d="M174 30 L48 218" stroke="#b96b2f" stroke-width="1" opacity="0.18"/>
  <rect x="20" y="18" width="180" height="222" rx="8" fill="none" stroke="#2d2926" stroke-width="1.2" opacity="0.28"/>
  <text x="110" y="235" text-anchor="middle" font-family="Georgia, 'Times New Roman', serif" font-size="17" fill="#2d2926" letter-spacing="1.5">GS</text>
</svg>
