<svg xmlns="http://www.w3.org/2000/svg" viewBox="0 0 220 260" role="img" aria-labelledby="john_templeton-title john_templeton-desc">
  <title id="john_templeton-title">John Templeton original line-art portrait</title>
  <desc id="john_templeton-desc">Original local SVG portrait asset for Investment Mirror master profile cards.</desc>
  <rect width="220" height="260" rx="10" fill="#f7f3ee"/>
  <path d="M18 214 C58 196 162 198 202 215 L202 242 L18 242 Z" fill="#efe4d7" stroke="#2d2926" stroke-width="1.5"/>
  <g opacity="0.85">
    <circle cx="55" cy="45" r="1.46" fill="#b96b2f" opacity="0.14"/>
    <circle cx="72" cy="74" r="0.80" fill="#b96b2f" opacity="0.18"/>
    <circle cx="89" cy="103" r="1.02" fill="#b96b2f" opacity="0.21"/>
    <circle cx="106" cy="132" r="1.24" fill="#b96b2f" opacity="0.25"/>
    <circle cx="123" cy="161" r="1.46" fill="#b96b2f" opacity="0.28"/>
    <circle cx="140" cy="48" r="0.80" fill="#b96b2f" opacity="0.14"/>
    <circle cx="157" cy="77" r="1.02" fill="#b96b2f" opacity="0.18"/>
    <circle cx="174" cy="106" r="1.24" fill="#b96b2f" opacity="0.21"/>
    <circle cx="35" cy="135" r="1.46" fill="#b96b2f" opacity="0.25"/>
    <circle cx="52" cy="164" r="0.80" fill="#b96b2f" opacity="0.28"/>
    <circle cx="69" cy="51" r="1.02" fill="#b96b2f" opacity="0.14"/>
    <circle cx="86" cy="80" r="1.24" fill="#b96b2f" opacity="0.18"/>
    <circle cx="103" cy="109" r="1.46" fill="#b96b2f" opacity="0.21"/>
    <circle cx="120" cy="138" r="0.80" fill="#b96b2f" opacity="0.25"/>
    <circle cx="137" cy="25" r="1.02" fill="#b96b2f" opacity="0.28"/>
    <circle cx="154" cy="54" r="1.24" fill="#b96b2f" opacity="0.14"/>
    <circle cx="171" cy="83" r="1.46" fill="#b96b2f" opacity="0.18"/>
    <circle cx="32" cy="112" r="0.80" fill="#b96b2f" opacity="0.21"/>
    <circle cx="49" cy="141" r="1.02" fill="#b96b2f" opacity="0.25"/>
    <circle cx="66" cy="28" r="1.24" fill="#b96b2f" opacity="0.28"/>
    <circle cx="83" cy="57" r="1.46" fill="#b96b2f" opacity="0.14"/>
    <circle cx="100" cy="86" r="0.80" fill="#b96b2f" opacity="0.18"/>
    <circle cx="117" cy="115" r="1.02" fill="#b96b2f" opacity="0.21"/>
    <circle cx="134" cy="144" r="1.24" fill="#b96b2f" opacity="0.25"/>
    <circle cx="151" cy="31" r="1.46" fill="#b96b2f" opacity="0.28"/>
    <circle cx="168" cy="60" r="0.80" fill="#b96b2f" opacity="0.14"/>
    <circle cx="29" cy="89" r="1.02" fill="#b96b2f" opacity="0.18"/>
    <circle cx="46" cy="118" r="1.24" fill="#b96b2f" opacity="0.21"/>
    <circle cx="63" cy="147" r="1.46" fill="#b96b2f" opacity="0.25"/>
    <circle cx="80" cy="34" r="0.80" fill="#b96b2f" opacity="0.28"/>
    <circle cx="97" cy="63" r="1.02" fill="#b96b2f" opacity="0.14"/>
    <circle cx="114" cy="92" r="1.24" fill="#b96b2f" opacity="0.18"/>
    <circle cx="131" cy="121" r="1.46" fill="#b96b2f" opacity="0.21"/>
    <circle cx="148" cy="150" r="0.80" fill="#b96b2f" opacity="0.25"/>
    <circle cx="165" cy="37" r="1.02" fill="#b96b2f" opacity="0.28"/>
    <circle cx="26" cy="66" r="1.24" fill="#b96b2f" opacity="0.14"/>
    <circle cx="43" cy="95" r="1.46" fill="#b96b2f" opacity="0.18"/>
    <circle cx="60" cy="124" r="0.80" fill="#b96b2f" opacity="0.21"/>
    <circle cx="77" cy="153" r="1.02" fill="#b96b2f" opacity="0.25"/>
    <circle cx="94" cy="40" r="1.24" fill="#b96b2f" opacity="0.28"/>
    <circle cx="111" cy="69" r="1.46" fill="#b96b2f" opacity="0.14"/>
    <circle cx="128" cy="98" r="0.80" fill="#b96b2f" opacity="0.18"/>
    <circle cx="145" cy="127" r="1.02" fill="#b96b2f" opacity="0.21"/>
    <circle cx="162" cy="156" r="1.24" fill="#b96b2f" opacity="0.25"/>
    <circle cx="23" cy="43" r="1.46" fill="#b96b2f" opacity="0.28"/>
    <circle cx="40" cy="72" r="0.80" fill="#b96b2f" opacity="0.14"/>
    <circle cx="57" cy="101" r="1.02" fill="#b96b2f" opacity="0.18"/>
    <circle cx="74" cy="130" r="1.24" fill="#b96b2f" opacity="0.21"/>
  </g>
  <path d="M53.166666666666664 206 C72 178 148 178 166.83333333333334 206" fill="none" stroke="#2d2926" stroke-width="3" stroke-linecap="round"/>
  <path d="M64 54 C78 22 139 17 156 61 C177 67 169 134 148 160 C132 180 92 180 73 158 C54 136 48 71 64 54 Z" fill="#fffaf4" stroke="#2d2926" stroke-width="2.5"/>
  <path d="M64 58 C83 38 136 36 158 66 C145 61 124 62 105 59 C87 56 75 62 64 58 Z" fill="#2d2926" opacity="0.08" stroke="#2d2926" stroke-width="1.2"/>
  <path d="M82 104 C91 100 99 101 106 106" fill="none" stroke="#2d2926" stroke-width="2" stroke-linecap="round"/>
  <path d="M121 106 C130 101 139 100 148 104" fill="none" stroke="#2d2926" stroke-width="2" stroke-linecap="round"/>
  <path d="M111 111 C108 124 108 132 115 136" fill="none" stroke="#2d2926" stroke-width="1.6" stroke-linecap="round"/>
  <path d="M91 166 C105 174 128 174 142 166" fill="none" stroke="#2d2926" stroke-width="2" stroke-linecap="round"/>
  <path d="M48 30 L174 218" stroke="#b96b2f" stroke-width="1" opacity="0.42"/>
  <path d="M174 30 L48 218" stroke="#b96b2f" stroke-width="1" opacity="0.18"/>
  <rect x="20" y="18" width="180" height="222" rx="8" fill="none" stroke="#2d2926" stroke-width="1.2" opacity="0.28"/>
  <text x="110" y="235" text-anchor="middle" font-family="Georgia, 'Times New Roman', serif" font-size="17" fill="#2d2926" letter-spacing="1.5">JT</text>
</svg>
